<?xml version="1.0" encoding="UTF-8" standalone="no"?><!DOCTYPE svg PUBLIC "-//W3C//DTD SVG 1.1//EN" "http://www.w3.org/Graphics/SVG/1.1/DTD/svg11.dtd"><svg width="100%" height="100%" viewBox="0 0 263 684" version="1.1" xmlns="http://www.w3.org/2000/svg" xmlns:xlink="http://www.w3.org/1999/xlink" xml:space="preserve" xmlns:serif="http://www.serif.com/" style="fill-rule:evenodd;clip-rule:evenodd;stroke-linejoin:round;stroke-miterlimit:2;"><path id="_16th-rest" serif:id="16th rest" d="M256.647,0.607l-40.759,-0.522c-2.913,-0.041 -5.356,1.646 -5.744,3.945l-27.176,161.004c-18.07,4.589 -47.332,8.289 -76.266,-3.782c19.777,-9.423 33.473,-29.527 33.473,-52.891c0,-32.368 -26.246,-58.615 -58.625,-58.615c-26.349,0 -48.639,17.395 -56.018,41.321c-11.09,32.307 5.611,58.043 5.611,58.043c33.922,48.057 79.721,62.478 119.192,62.478c8.759,0 17.17,-0.756 25.112,-1.962l-20.032,118.66c-18.162,3.802 -44.326,5.611 -70.204,-5.182c19.777,-9.424 33.472,-29.538 33.472,-52.891c0,-32.379 -26.246,-58.625 -58.615,-58.625c-26.359,0 -48.65,17.395 -56.029,41.342c-11.09,32.287 5.611,58.022 5.611,58.022c33.932,48.067 79.73,62.478 119.192,62.478c6.592,0 12.99,-0.409 19.143,-1.124l-51.511,305.216c-0.48,2.831 2.31,5.417 5.897,5.468l40.76,0.521c2.913,0.041 5.355,-1.645 5.744,-3.945l113.673,-673.492c0.48,-2.831 -2.31,-5.417 -5.898,-5.468Z" style="fill-rule:nonzero;"/></svg>