<?xml version="1.0" encoding="UTF-8" standalone="no"?><!DOCTYPE svg PUBLIC "-//W3C//DTD SVG 1.1//EN" "http://www.w3.org/Graphics/SVG/1.1/DTD/svg11.dtd"><svg width="100%" height="100%" viewBox="0 0 437 686" version="1.1" xmlns="http://www.w3.org/2000/svg" xmlns:xlink="http://www.w3.org/1999/xlink" xml:space="preserve" xmlns:serif="http://www.serif.com/" style="fill-rule:evenodd;clip-rule:evenodd;stroke-linejoin:round;stroke-miterlimit:2;"><path id="_16-th-note" serif:id="16 th note" d="M299.869,175.42c-26.628,-16.525 -53.902,-36.715 -75.172,-59.506c6.896,3.46 14.921,3.436 30.939,8.696c81.079,26.604 135.3,60.488 147.588,141.714c0,0 0.032,0.761 0.098,2.103c-26.677,-37.738 -65.56,-69.487 -103.453,-93.006Zm130.131,145.035c-1.35,-4.189 -2.904,-8.328 -4.581,-12.418c14.61,-38.49 6.585,-69.299 6.585,-69.299c-19.503,-60.856 -75.884,-111.363 -130.131,-145.035c-44.609,-27.683 -64.75,-34.866 -77.937,-77.004c-0.392,-3.084 -1.015,-6.25 -2.037,-9.048c-0.221,-0.597 -0.622,-1.104 -0.99,-1.628c-0.016,-0.073 -0.041,-0.139 -0.057,-0.213c0,0.041 -0.016,0.065 -0.016,0.098c-4.05,-5.497 -15.904,-6.937 -22.145,-5.121c-5.309,1.546 -5.04,7.812 -5.04,12.86c0,1.088 0.033,2.225 0.041,3.338l-1.047,497.459c-29.36,-14.603 -74.215,-10.57 -116.476,11.404c-58.713,30.53 -90.02,86.593 -69.929,125.23c20.092,38.638 83.967,45.215 142.68,14.684c48.994,-25.474 68.063,-67.556 67.834,-103.494l0,-375.64c13.85,8.148 15.199,9.776 36.878,19.699c77.586,35.52 168.146,130.531 136.552,216.264c-4.205,11.404 -17.155,32.895 -22.832,43.603c-12.909,24.354 20.411,17.785 33.77,-1.865c29.81,-43.856 44.855,-93.988 28.878,-143.874Z" style="fill-rule:nonzero;"/></svg>