<?xml version="1.0" encoding="UTF-8" standalone="no"?><!DOCTYPE svg PUBLIC "-//W3C//DTD SVG 1.1//EN" "http://www.w3.org/Graphics/SVG/1.1/DTD/svg11.dtd"><svg width="100%" height="100%" viewBox="0 0 264 629" version="1.1" xmlns="http://www.w3.org/2000/svg" xmlns:xlink="http://www.w3.org/1999/xlink" xml:space="preserve" xmlns:serif="http://www.serif.com/" style="fill-rule:evenodd;clip-rule:evenodd;stroke-linejoin:round;stroke-miterlimit:2;"><path id="_8th-rest" serif:id="8th rest" d="M256.952,0.983l-45.118,-0.973c-3.226,-0.068 -5.908,1.449 -6.316,3.554l-31.037,163.188c-20.17,4.573 -50.415,7.312 -80.321,-5.173c21.891,-10.425 37.07,-32.701 37.07,-58.576c0,-35.848 -29.067,-64.916 -64.927,-64.916c-29.192,0 -53.867,19.265 -62.04,45.775c-12.293,35.769 6.214,64.27 6.214,64.27c37.569,53.222 88.29,69.194 132.004,69.194c7.821,0 15.394,-0.555 22.649,-1.449l-77.31,406.447c-0.498,2.604 2.615,5.026 6.588,5.105l45.118,0.973c3.226,0.068 5.909,-1.449 6.305,-3.554l117.707,-618.76c0.498,-2.604 -2.626,-5.026 -6.587,-5.105Z" style="fill-rule:nonzero;"/></svg>