<?xml version="1.0" encoding="UTF-8" standalone="no"?><!DOCTYPE svg PUBLIC "-//W3C//DTD SVG 1.1//EN" "http://www.w3.org/Graphics/SVG/1.1/DTD/svg11.dtd"><svg width="100%" height="100%" viewBox="0 0 428 681" version="1.1" xmlns="http://www.w3.org/2000/svg" xmlns:xlink="http://www.w3.org/1999/xlink" xml:space="preserve" xmlns:serif="http://www.serif.com/" style="fill-rule:evenodd;clip-rule:evenodd;stroke-linejoin:round;stroke-miterlimit:2;"><path id="_8th-note" serif:id="8th note" d="M277.469,149.457c-23.118,-11.303 -38.142,-33.104 -46.382,-56.904c-3.413,-9.881 -5.769,-20.111 -7.273,-30.447c-0.674,-4.624 -0.967,-35.924 -1.259,-40.588c-0.244,-3.827 0.089,-8.378 -1.235,-12.018c-2.535,-6.923 -17.129,-10.954 -23.946,-8.971c-5.282,1.535 -5.314,8.345 -5.006,12.773c0.463,6.785 0.504,40.125 0.48,46.943c-0.041,13.724 -0.089,27.449 -0.138,41.173c-0.057,17.958 -0.122,35.907 -0.179,53.865c-0.073,20.688 -0.146,41.376 -0.211,62.064c-0.073,21.923 -0.154,43.855 -0.228,65.778c-0.073,21.671 -0.146,43.342 -0.219,65.006c-0.065,19.916 -0.138,39.832 -0.203,59.748c-0.057,16.666 -0.114,33.332 -0.171,49.998c-0.041,11.929 -0.081,23.849 -0.122,35.769c-0.016,5.68 -0.041,11.36 -0.057,17.04c0,0.065 -0.057,0.789 0,0.813c-29.164,-14.505 -73.717,-11.872 -115.702,9.962c-58.31,30.317 -89.407,86.01 -69.45,124.388c19.957,38.378 70.393,46.764 128.703,16.446c48.673,-25.312 80.623,-68.402 80.396,-104.098l0,-349.983c71.19,-2.169 137.171,83.963 137.171,83.963c66.428,116.986 -41.312,233.541 -41.312,233.541c-7.134,22.102 7.46,17.438 7.46,17.438c38.101,-22.963 82.362,-95.42 82.362,-95.42c101.888,-170.25 -123.478,-298.279 -123.478,-298.279Z" style="fill-rule:nonzero;"/></svg>