<?xml version="1.0" encoding="UTF-8" standalone="no"?><!DOCTYPE svg PUBLIC "-//W3C//DTD SVG 1.1//EN" "http://www.w3.org/Graphics/SVG/1.1/DTD/svg11.dtd"><svg width="100%" height="100%" viewBox="0 0 315 672" version="1.1" xmlns="http://www.w3.org/2000/svg" xmlns:xlink="http://www.w3.org/1999/xlink" xml:space="preserve" xmlns:serif="http://www.serif.com/" style="fill-rule:evenodd;clip-rule:evenodd;stroke-linejoin:round;stroke-miterlimit:2;"><path id="Dotted-quarter-rest" serif:id="Dotted quarter rest" d="M58.188,633.074c-40.99,-42.741 -49.598,-66.227 -50.162,-67.444c-12.488,-26.905 -16.247,-95.143 34.866,-121.94c30.454,-15.967 57.411,-7.326 57.651,-7.275c39.86,8.466 11.246,-30.465 8.478,-35.015c-26.116,-42.941 -63.978,-93.44 -81.606,-106.977c-9.055,-6.953 -19.308,-5.563 -17.669,-20.641c3.024,-27.809 17.059,-24.566 57.354,-69.644c55.018,-61.549 46.958,-83.097 46.167,-87.506c-1.841,-10.271 -26.162,-60.041 -60.607,-94.691c-7.868,-7.915 6.896,-31.642 28.016,-17.417c10.408,7.01 21.898,15.197 36.067,31.532c8.115,9.356 74.998,98.097 81.46,106.672c21.576,28.627 34.615,35.847 15.23,55.214c-9.144,9.136 -10.319,7.929 -22.401,22.367c-50.631,60.5 -48.747,76.745 -50.793,84.438c-1.165,4.379 -7.556,28.407 -4.208,56.489c4.665,39.128 15.201,44.907 48.413,88.98c31.974,42.43 32.825,41.777 35.389,45.618c9.714,14.554 -6.711,29.106 -13.532,32.095c-7.896,3.461 -9.249,1.313 -10.804,0.005c-3.95,-3.325 -29.855,-25.131 -57.398,-29.511c-25.246,-4.015 -36.394,-1.37 -45.002,10.533c-37.545,51.919 10.596,110.245 30.793,146.632c5.63,10.143 -18.286,17.052 -22.046,16.131c-5.595,-1.37 -39.142,-34.026 -43.656,-38.644Zm255.737,-556.51l0,6.574c-0.108,0.308 -0.56,0.408 -0.668,0.716c-0.122,0.346 -0.147,10.551 -11.685,18.733c-21.372,15.155 -54.169,-8.604 -39.703,-36.433c7.865,-15.13 23.698,-14.377 26.073,-14.264c7.644,0.364 19.882,5.494 24.368,18.746c1.225,3.618 0.563,3.734 0.958,5.209c0.084,0.313 0.573,0.404 0.657,0.717Z" style="fill-opacity:1;"/></svg>