<?xml version="1.0" encoding="UTF-8" standalone="no"?><!DOCTYPE svg PUBLIC "-//W3C//DTD SVG 1.1//EN" "http://www.w3.org/Graphics/SVG/1.1/DTD/svg11.dtd"><svg width="100%" height="100%" viewBox="0 0 365 704" version="1.1" xmlns="http://www.w3.org/2000/svg" xmlns:xlink="http://www.w3.org/1999/xlink" xml:space="preserve" xmlns:serif="http://www.serif.com/" style="fill-rule:evenodd;clip-rule:evenodd;stroke-linejoin:round;stroke-miterlimit:2;"><path id="Dotted-Quarter-note" serif:id="Dotted Quarter note" d="M180.307,662.28c-75.546,65.387 -186.913,49.82 -179.816,-27.16c6.111,-66.279 108.732,-136.637 186.132,-108.721c5.712,2.06 6.921,3.585 6.968,1.345c0.668,-32.371 -0.016,-32.361 -0.016,-404.729c0,-118.955 -0.084,-119.08 0.664,-120.337c1.755,-2.951 3.539,-2.403 21.351,-2.402c8.402,0 6.998,3.828 6.998,21.563c0,558.401 0.07,558.427 -0.576,564.343c-4.935,45.248 -40.129,74.596 -41.706,76.096Zm178.313,-24.184c-19.647,25.335 -57.563,-1.199 -42.515,-29.038c12.711,-23.516 50.22,-14.158 47.862,15.739c-0.539,6.839 -4.666,12.383 -5.347,13.299Z" style="fill-opacity:1;"/></svg>