<?xml version="1.0" encoding="UTF-8" standalone="no"?><!DOCTYPE svg PUBLIC "-//W3C//DTD SVG 1.1//EN" "http://www.w3.org/Graphics/SVG/1.1/DTD/svg11.dtd"><svg width="100%" height="100%" viewBox="0 0 229 675" version="1.1" xmlns="http://www.w3.org/2000/svg" xmlns:xlink="http://www.w3.org/1999/xlink" xml:space="preserve" xmlns:serif="http://www.serif.com/" style="fill-rule:evenodd;clip-rule:evenodd;stroke-linejoin:round;stroke-miterlimit:2;"><path id="Half-Note" serif:id="Half Note" d="M140.308,625.546c-22.206,11.529 -45.778,16.695 -66.295,14.603c-10.378,-1.07 -29.125,-5.157 -37.009,-20.452c-13.275,-25.416 11.746,-65.684 54.549,-87.93c18.987,-9.872 39.262,-15.005 57.203,-15.005c10.942,0 21.079,1.915 29.366,5.841l0.241,0.105c0.644,0.281 14.804,7.2 19.793,27.741c1.448,25.392 -22.689,56.785 -57.848,75.097Zm84.157,-625.522l-20.597,0c-2.334,0 -4.264,1.907 -4.264,4.256l-0.161,492.24c-2.655,-1.778 -5.229,-3.267 -7.321,-4.208c-31.539,-14.707 -75.95,-10.958 -116.017,9.864c-60.824,31.643 -90.994,90.021 -68.709,132.912c11.264,21.618 33.711,35.199 63.239,38.24c4.023,0.418 8.206,0.62 12.47,0.62c23.574,0 48.917,-6.509 72.571,-18.818c47.066,-24.467 69.755,-66.078 68.548,-104.672l0.242,-0.242l4.263,-545.904c0,-2.357 -1.931,-4.288 -4.263,-4.288Z" style="fill-rule:nonzero;"/></svg>