<?xml version="1.0" encoding="UTF-8" standalone="no"?><!DOCTYPE svg PUBLIC "-//W3C//DTD SVG 1.1//EN" "http://www.w3.org/Graphics/SVG/1.1/DTD/svg11.dtd"><svg width="100%" height="100%" viewBox="0 0 223 673" version="1.1" xmlns="http://www.w3.org/2000/svg" xmlns:xlink="http://www.w3.org/1999/xlink" xml:space="preserve" xmlns:serif="http://www.serif.com/" style="fill-rule:evenodd;clip-rule:evenodd;stroke-linejoin:round;stroke-miterlimit:2;"><path id="Quarter-rest" serif:id="Quarter rest" d="M80.556,4.782c15.943,10.237 29.988,23.193 41.503,38.276c0,0 83.004,109.121 84.144,110.526c8.983,11.869 24.167,23.421 11.767,39.427c-5.947,7.554 -14.678,12.893 -21.005,20.27c-5.82,6.719 -11.513,13.577 -16.955,20.549c-12.907,16.336 -25.812,33.531 -34.67,52.511c-3.163,7.022 -3.922,13.703 -5.82,20.878c-4.177,15.095 -5.188,31.582 -4.177,47.121c0.76,14.045 3.543,28.394 9.238,41.313c5.567,12.578 15.69,23.206 23.913,34.088c7.593,10.059 15.185,20.03 22.903,30.064c5.567,7.402 11.135,14.804 16.828,22.206c4.05,5.428 13.54,13.83 14.425,20.764c0.253,1.645 0,3.328 -0.253,4.96c-2.403,11.034 -10.882,19.866 -22.016,22.283c-0.632,0.164 -1.518,0.291 -2.15,0.088c-0.76,-0.202 -1.267,-0.696 -1.898,-1.189c-22.65,-20.005 -56.054,-36.176 -87.054,-31.001c-11.515,1.923 -17.968,12.514 -22.903,22.105c-11.008,21.308 -8.35,46.627 0.127,68.315c9.237,23.573 24.801,45.615 37.328,67.518c0.378,0.721 0.885,1.455 0.885,2.265c1.013,7.769 -15.183,12.868 -20.498,13.982c-5.188,1.113 -12.653,-7.934 -16.448,-11.11c-5.948,-5.011 -11.642,-10.173 -17.336,-15.5c-11.008,-10.414 -21.51,-21.435 -31.253,-33.075c-17.588,-21.042 -36.188,-45.488 -38.465,-73.794c-1.013,-11.185 -1.013,-23.965 0.885,-35.011c3.163,-18.55 11.388,-36.29 25.56,-48.943c9.11,-8.098 20.118,-13.893 31.76,-17.246c5.947,-1.683 11.893,-2.758 17.967,-3.201c8.858,-0.645 15.565,0.62 24.295,2.632c6.707,1.582 18.347,2.758 19.992,-6.251c1.393,-8.326 -5.567,-18.36 -9.742,-24.826c-14.805,-24.332 -30.748,-48.095 -48.083,-70.744c-6.707,-8.87 -13.665,-17.639 -21.258,-25.8c-6.705,-7.162 -13.285,-15.108 -22.395,-19.195c-2.025,-0.886 -4.05,-1.582 -5.822,-2.733c-6.58,-4.176 -4.175,-15.968 -2.657,-22.333c1.898,-7.655 6.453,-13.615 12.273,-18.613c23.788,-20.093 46.185,-43.034 64.784,-67.986c14.045,-18.866 33.531,-46.361 21.89,-70.845c-12.02,-25.509 -27.836,-51.473 -46.183,-73.009c-3.67,-4.39 -7.593,-8.629 -11.768,-12.64c-4.555,-4.39 -0.253,-12.97 3.67,-16.993c6.705,-6.896 15.31,-5.441 23.155,-1.088l1.518,0.987Z" style="fill-rule:nonzero;"/></svg>