<?xml version="1.0" encoding="UTF-8" standalone="no"?>
<!-- Created with Inkscape (http://www.inkscape.org/) -->

<svg
   xmlns:dc="http://purl.org/dc/elements/1.1/"
   xmlns:cc="http://creativecommons.org/ns#"
   xmlns:rdf="http://www.w3.org/1999/02/22-rdf-syntax-ns#"
   xmlns:svg="http://www.w3.org/2000/svg"
   xmlns="http://www.w3.org/2000/svg"
   xmlns:sodipodi="http://sodipodi.sourceforge.net/DTD/sodipodi-0.dtd"
   xmlns:inkscape="http://www.inkscape.org/namespaces/inkscape"
   width="58.470001"
   height="54.129932"
   viewBox="0 0 58.470002 54.129934"
   id="svg5851"
   version="1.1"
   inkscape:version="0.91 r13725"
   sodipodi:docname="b5.svg">
  <defs
     id="defs5853" />
  <sodipodi:namedview
     id="base"
     pagecolor="#ffffff"
     bordercolor="#666666"
     borderopacity="1.0"
     inkscape:pageopacity="0.0"
     inkscape:pageshadow="2"
     inkscape:zoom="5.6"
     inkscape:cx="88.388957"
     inkscape:cy="19.5247"
     inkscape:document-units="px"
     inkscape:current-layer="layer1"
     showgrid="false"
     fit-margin-top="0"
     fit-margin-left="0"
     fit-margin-right="0"
     fit-margin-bottom="0"
     units="px"
     inkscape:window-width="1333"
     inkscape:window-height="749"
     inkscape:window-x="33"
     inkscape:window-y="0"
     inkscape:window-maximized="1" />
  <metadata
     id="metadata5856">
    <rdf:RDF>
      <cc:Work
         rdf:about="">
        <dc:format>image/svg+xml</dc:format>
        <dc:type
           rdf:resource="http://purl.org/dc/dcmitype/StillImage" />
        <dc:title></dc:title>
      </cc:Work>
    </rdf:RDF>
  </metadata>
  <g
     inkscape:label="Layer 1"
     inkscape:groupmode="layer"
     id="layer1"
     transform="translate(-350.57617,-481.75393)">
    <g
       id="g6421">
      <g
         transform="matrix(0.46923528,0,0,0.94229234,350.57617,497.82691)"
         font-size="11"
         font-weight="400"
         font-style="normal"
         id="g400"
         style="font-style:normal;font-weight:400;font-size:11px;font-family:FreeSerif;fill:none;fill-rule:evenodd;stroke:#000000;stroke-width:0.533907;stroke-linecap:butt;stroke-linejoin:bevel;stroke-opacity:1">
        <polyline
           vector-effect="none"
           points="0,0 124.607,0 "
           id="polyline402"
           style="fill:none" />
        <polyline
           vector-effect="none"
           points="0,6.67384 124.607,6.67384 "
           id="polyline404"
           style="fill:none" />
        <polyline
           vector-effect="none"
           points="0,13.3477 124.607,13.3477 "
           id="polyline406"
           style="fill:none" />
        <polyline
           vector-effect="none"
           points="0,20.0215 124.607,20.0215 "
           id="polyline408"
           style="fill:none" />
        <polyline
           vector-effect="none"
           points="0,26.6953 124.607,26.6953 "
           id="polyline410"
           style="fill:none" />
      </g>
      <g
         transform="matrix(0.93649194,0,0,0.93649194,354.57637,516.65431)"
         font-size="27"
         font-weight="400"
         font-style="normal"
         id="g562"
         style="font-style:normal;font-weight:400;font-size:27px;font-family:MScore;fill:#000000;fill-opacity:1;fill-rule:evenodd;stroke:none;stroke-width:1;stroke-linecap:square;stroke-linejoin:bevel">
        <path
           vector-effect="none"
           d="m 9.92188,-6.90625 c 0,0 0.05208,0 0.15622,0 0.0625,-0.02083 0.1198,-0.03125 0.1719,-0.03125 1.9688,0 3.5885,0.69271 4.8594,2.07812 C 16.3698,-3.48438 17,-1.88021 17,-0.046875 17,2.21354 16.0625,4.05729 14.1875,5.48438 13.6979,5.86979 13.0573,6.1875 12.2656,6.4375 c 0.0834,1.13542 0.125,2.05729 0.125,2.76562 0,0.13542 -0.0156,0.64584 -0.0468,1.53128 -0.073,1.6354 -0.6355,3.0521 -1.6876,4.25 -1.02078,1.1771 -2.28641,1.7656 -3.79682,1.7656 -1.42709,0 -2.64063,-0.5052 -3.64063,-1.5156 -1,-1.0104 -1.5,-2.2396 -1.5,-3.6875 0,-0.75 0.28646,-1.3907 0.85937,-1.9219 0.60417,-0.53125 1.30209,-0.79688 2.09376,-0.79688 0.69791,0 1.28645,0.27605 1.76562,0.82813 0.48958,0.51045 0.73438,1.14065 0.73438,1.89065 0,0.6875 -0.2448,1.276 -0.73438,1.7656 -0.48958,0.4896 -1.07812,0.7344 -1.76562,0.7344 -0.28126,0 -0.5573,-0.0521 -0.82813,-0.1563 0.78125,1.1459 1.8125,1.7188 3.09375,1.7188 1.20833,0 2.20312,-0.4896 2.98438,-1.4688 C 10.724,13.1198 11.1615,11.9323 11.2344,10.5781 11.2656,9.73438 11.2812,9.25 11.2812,9.125 11.2812,8.13542 11.25,7.32812 11.1875,6.70312 10.3021,6.83854 9.51562,6.90625 8.82812,6.90625 c -2.4375,0 -4.52083,-0.96354 -6.25,-2.89063 -1.687495,-1.95833 -2.531245,-4.281245 -2.531245,-6.96874 0,-0.5625 0.057292,-1.13542 0.171875,-1.71876 C 0.322917,-5.14062 0.453125,-5.65625 0.609375,-6.21875 0.692708,-6.54167 0.927083,-7.05208 1.3125,-7.75 1.45833,-7.95833 1.61979,-8.22135 1.79688,-8.53906 1.97396,-8.85677 2.09375,-9.06771 2.15625,-9.17188 2.33333,-9.52604 2.67708,-10 3.1875,-10.5938 c 0.14583,-0.1666 0.29167,-0.3463 0.4375,-0.539 0.14583,-0.1927 0.27344,-0.349 0.38281,-0.4688 0.10938,-0.1198 0.19011,-0.2161 0.24219,-0.289 0.05208,-0.0729 0.44792,-0.5417 1.1875,-1.4063 0.17708,-0.1666 0.34896,-0.3515 0.51562,-0.5547 0.16667,-0.2031 0.30209,-0.3619 0.40626,-0.4765 0.10416,-0.1146 0.18229,-0.1979 0.23437,-0.25 -0.63542,-2.0938 -1.03125,-3.7657 -1.1875,-5.0157 -0.125,-1 -0.1875,-2.3697 -0.1875,-4.1093 0,-1.5313 0.35417,-2.9636 1.0625,-4.2969 0.67708,-1.3854 1.63542,-2.5208 2.875,-3.4062 0.08333,-0.0521 0.16667,-0.0782 0.25,-0.0782 0.125,0 0.21354,0.0261 0.26563,0.0782 0.94792,1.1458 1.76562,2.6302 2.45312,4.4531 0.7083,1.8333 1.0625,3.4948 1.0625,4.9843 0,1.6876 -0.4063,3.2709 -1.2187,4.75 -0.9167,1.5626 -2.0938,3.1823 -3.5313,4.8594 0.36458,1.1563 0.85938,2.97398 1.48438,5.45315 M 12.1562,5.35938 C 13.0729,5.02604 13.7865,4.45312 14.2969,3.64062 14.8594,2.86979 15.1406,2 15.1406,1.03125 c 0,-1.25 -0.4218,-2.35937 -1.2656,-3.32813 -0.8646,-1 -1.9635,-1.5625 -3.2969,-1.6875 0.75,3.708338 1.2761,6.82292 1.5781,9.34376 M 1.95312,-0.734375 c 0,1.739585 0.70313,3.265625 2.10938,4.578125 1.4375,1.29167 3.05208,1.9375 4.84375,1.9375 0.73958,0 1.46355,-0.05729 2.17185,-0.17187 -0.2812,-2.66667 -0.8385,-5.864588 -1.67185,-9.59376 -1,0.10417 -1.79687,0.45834 -2.39063,1.0625 -0.58333,0.61459 -0.875,1.3073 -0.875,2.07813 0,1.333333 0.71355,2.41667 2.14063,3.25 0.125,0.11458 0.1875,0.24219 0.1875,0.38281 0,0.14063 -0.0625,0.27344 -0.1875,0.39844 C 8.17708,3.3125 8.04688,3.375 7.89062,3.375 7.86979,3.375 7.78646,3.35938 7.64062,3.32812 6.64062,2.77604 5.86979,2.07292 5.32812,1.21875 4.81771,0.302083 4.5625,-0.625 4.5625,-1.5625 c 0,-1.20833 0.38021,-2.30729 1.14062,-3.29688 0.78126,-0.97916 1.8073,-1.60937 3.07813,-1.89062 -0.48958,-1.96875 -0.89583,-3.5052 -1.21875,-4.6094 -0.28125,0.3125 -0.61979,0.6927 -1.01562,1.1406 -0.39584,0.44797 -0.625,0.7188 -0.6875,0.81255 -0.63542,0.82292 -1.1198,1.46354 -1.45313,1.92187 -0.60417,0.82292 -1.04687,1.53126 -1.32813,2.125 -0.29166,0.67709 -0.55208,1.40626 -0.78124,2.1875 -0.22917,0.76042 -0.34376,1.57292 -0.34376,2.437505 M 10.7656,-27.5469 c -1.32289,0.6459 -2.36456,1.5729 -3.12498,2.7813 -0.77083,1.25 -1.15624,2.5989 -1.15624,4.0468 0,1.2605 0.3177,2.9636 0.95312,5.1094 1.26042,-1.5312 2.20833,-2.9479 2.8437,-4.25 0.6667,-1.3646 1,-2.7968 1,-4.2968 0,-1.125 -0.1718,-2.2553 -0.5156,-3.3907"
           id="path564"
           inkscape:connector-curvature="0"
           style="fill-rule:nonzero" />
      </g>
      <g
         transform="matrix(0.93649194,0,0,0.93649194,398.68747,516.65431)"
         font-size="27"
         font-weight="400"
         font-style="normal"
         id="g754"
         style="font-style:normal;font-weight:400;font-size:27px;font-family:MScore;fill:#000000;fill-opacity:1;fill-rule:evenodd;stroke:none;stroke-width:1;stroke-linecap:square;stroke-linejoin:bevel">
        <path
           vector-effect="none"
           d="m 1.23438,-1.10938 0,2.07813 c 0,0.73958 0.03645,1.33333 0.10937,1.78125 C 1.92708,2.25 2.33854,1.88021 2.57812,1.64062 2.85938,1.35938 3.14062,0.971354 3.42188,0.476562 3.70312,-0.0182292 3.84375,-0.510417 3.84375,-1 c 0,-0.48958 -0.10417,-0.91146 -0.3125,-1.26562 -0.20833,-0.35417 -0.48958,-0.53126 -0.84375,-0.53126 -0.41667,0 -0.76562,0.15626 -1.04688,0.46876 -0.27083,0.35416 -0.40624,0.76041 -0.40624,1.21874 M 0.125,3.71875 -0.21875,-12.3438 c 0.25,-0.1354 0.497396,-0.2031 0.742188,-0.2031 0.244791,0 0.492182,0.0677 0.742182,0.2031 L 1.0625,-3.03125 c 0.71875,-0.61458 1.54167,-0.92187 2.46875,-0.92187 0.6875,0 1.26042,0.28124 1.71875,0.84374 0.45833,0.5625 0.6875,1.20313 0.6875,1.92188 0,0.458333 -0.15104,0.942708 -0.45312,1.453125 C 5.20312,0.734375 4.90625,1.10417 4.59375,1.375 4.41667,1.51042 3.96875,1.85938 3.25,2.42188 3.03125,2.57812 2.77865,2.76302 2.49219,2.97656 2.20573,3.1901 2.02604,3.32292 1.95312,3.375 1.82812,3.44792 1.71354,3.58854 1.60938,3.79688 1.48438,3.97396 1.34375,4.125 1.1875,4.25 1.0625,4.35417 0.911458,4.40625 0.734375,4.40625 0.557292,4.40625 0.416667,4.34375 0.3125,4.21875 0.1875,4.09375 0.125,3.92708 0.125,3.71875"
           id="path756"
           inkscape:connector-curvature="0"
           style="fill-rule:nonzero" />
      </g>
      <g
         transform="matrix(0.93649194,0,0,0.93649194,392.43937,504.15422)"
         font-size="27"
         font-weight="400"
         font-style="normal"
         id="g762"
         style="font-style:normal;font-weight:400;font-size:27px;font-family:MScore;fill:#000000;fill-opacity:1;fill-rule:evenodd;stroke:none;stroke-width:1;stroke-linecap:square;stroke-linejoin:bevel">
        <path
           vector-effect="none"
           d="m 1.23438,-1.10938 0,2.07813 c 0,0.73958 0.03645,1.33333 0.10937,1.78125 C 1.92708,2.25 2.33854,1.88021 2.57812,1.64062 2.85938,1.35938 3.14062,0.971354 3.42188,0.476562 3.70312,-0.0182292 3.84375,-0.510417 3.84375,-1 c 0,-0.48958 -0.10417,-0.91146 -0.3125,-1.26562 -0.20833,-0.35417 -0.48958,-0.53126 -0.84375,-0.53126 -0.41667,0 -0.76562,0.15626 -1.04688,0.46876 -0.27083,0.35416 -0.40624,0.76041 -0.40624,1.21874 M 0.125,3.71875 -0.21875,-12.3438 c 0.25,-0.1354 0.497396,-0.2031 0.742188,-0.2031 0.244791,0 0.492182,0.0677 0.742182,0.2031 L 1.0625,-3.03125 c 0.71875,-0.61458 1.54167,-0.92187 2.46875,-0.92187 0.6875,0 1.26042,0.28124 1.71875,0.84374 0.45833,0.5625 0.6875,1.20313 0.6875,1.92188 0,0.458333 -0.15104,0.942708 -0.45312,1.453125 C 5.20312,0.734375 4.90625,1.10417 4.59375,1.375 4.41667,1.51042 3.96875,1.85938 3.25,2.42188 3.03125,2.57812 2.77865,2.76302 2.49219,2.97656 2.20573,3.1901 2.02604,3.32292 1.95312,3.375 1.82812,3.44792 1.71354,3.58854 1.60938,3.79688 1.48438,3.97396 1.34375,4.125 1.1875,4.25 1.0625,4.35417 0.911458,4.40625 0.734375,4.40625 0.557292,4.40625 0.416667,4.34375 0.3125,4.21875 0.1875,4.09375 0.125,3.92708 0.125,3.71875"
           id="path764"
           inkscape:connector-curvature="0"
           style="fill-rule:nonzero" />
      </g>
      <g
         transform="matrix(0.93649194,0,0,0.93649194,386.19097,513.52921)"
         font-size="27"
         font-weight="400"
         font-style="normal"
         id="g770"
         style="font-style:normal;font-weight:400;font-size:27px;font-family:MScore;fill:#000000;fill-opacity:1;fill-rule:evenodd;stroke:none;stroke-width:1;stroke-linecap:square;stroke-linejoin:bevel">
        <path
           vector-effect="none"
           d="m 1.23438,-1.10938 0,2.07813 c 0,0.73958 0.03645,1.33333 0.10937,1.78125 C 1.92708,2.25 2.33854,1.88021 2.57812,1.64062 2.85938,1.35938 3.14062,0.971354 3.42188,0.476562 3.70312,-0.0182292 3.84375,-0.510417 3.84375,-1 c 0,-0.48958 -0.10417,-0.91146 -0.3125,-1.26562 -0.20833,-0.35417 -0.48958,-0.53126 -0.84375,-0.53126 -0.41667,0 -0.76562,0.15626 -1.04688,0.46876 -0.27083,0.35416 -0.40624,0.76041 -0.40624,1.21874 M 0.125,3.71875 -0.21875,-12.3438 c 0.25,-0.1354 0.497396,-0.2031 0.742188,-0.2031 0.244791,0 0.492182,0.0677 0.742182,0.2031 L 1.0625,-3.03125 c 0.71875,-0.61458 1.54167,-0.92187 2.46875,-0.92187 0.6875,0 1.26042,0.28124 1.71875,0.84374 0.45833,0.5625 0.6875,1.20313 0.6875,1.92188 0,0.458333 -0.15104,0.942708 -0.45312,1.453125 C 5.20312,0.734375 4.90625,1.10417 4.59375,1.375 4.41667,1.51042 3.96875,1.85938 3.25,2.42188 3.03125,2.57812 2.77865,2.76302 2.49219,2.97656 2.20573,3.1901 2.02604,3.32292 1.95312,3.375 1.82812,3.44792 1.71354,3.58854 1.60938,3.79688 1.48438,3.97396 1.34375,4.125 1.1875,4.25 1.0625,4.35417 0.911458,4.40625 0.734375,4.40625 0.557292,4.40625 0.416667,4.34375 0.3125,4.21875 0.1875,4.09375 0.125,3.92708 0.125,3.71875"
           id="path772"
           inkscape:connector-curvature="0"
           style="fill-rule:nonzero" />
      </g>
      <g
         transform="matrix(0.93649194,0,0,0.93649194,379.94287,501.02912)"
         font-size="27"
         font-weight="400"
         font-style="normal"
         id="g778"
         style="font-style:normal;font-weight:400;font-size:27px;font-family:MScore;fill:#000000;fill-opacity:1;fill-rule:evenodd;stroke:none;stroke-width:1;stroke-linecap:square;stroke-linejoin:bevel">
        <path
           vector-effect="none"
           d="m 1.23438,-1.10938 0,2.07813 c 0,0.73958 0.03645,1.33333 0.10937,1.78125 C 1.92708,2.25 2.33854,1.88021 2.57812,1.64062 2.85938,1.35938 3.14062,0.971354 3.42188,0.476562 3.70312,-0.0182292 3.84375,-0.510417 3.84375,-1 c 0,-0.48958 -0.10417,-0.91146 -0.3125,-1.26562 -0.20833,-0.35417 -0.48958,-0.53126 -0.84375,-0.53126 -0.41667,0 -0.76562,0.15626 -1.04688,0.46876 -0.27083,0.35416 -0.40624,0.76041 -0.40624,1.21874 M 0.125,3.71875 -0.21875,-12.3438 c 0.25,-0.1354 0.497396,-0.2031 0.742188,-0.2031 0.244791,0 0.492182,0.0677 0.742182,0.2031 L 1.0625,-3.03125 c 0.71875,-0.61458 1.54167,-0.92187 2.46875,-0.92187 0.6875,0 1.26042,0.28124 1.71875,0.84374 0.45833,0.5625 0.6875,1.20313 0.6875,1.92188 0,0.458333 -0.15104,0.942708 -0.45312,1.453125 C 5.20312,0.734375 4.90625,1.10417 4.59375,1.375 4.41667,1.51042 3.96875,1.85938 3.25,2.42188 3.03125,2.57812 2.77865,2.76302 2.49219,2.97656 2.20573,3.1901 2.02604,3.32292 1.95312,3.375 1.82812,3.44792 1.71354,3.58854 1.60938,3.79688 1.48438,3.97396 1.34375,4.125 1.1875,4.25 1.0625,4.35417 0.911458,4.40625 0.734375,4.40625 0.557292,4.40625 0.416667,4.34375 0.3125,4.21875 0.1875,4.09375 0.125,3.92708 0.125,3.71875"
           id="path780"
           inkscape:connector-curvature="0"
           style="fill-rule:nonzero" />
      </g>
      <g
         transform="matrix(0.93649194,0,0,0.93649194,373.69477,510.40412)"
         font-size="27"
         font-weight="400"
         font-style="normal"
         id="g786"
         style="font-style:normal;font-weight:400;font-size:27px;font-family:MScore;fill:#000000;fill-opacity:1;fill-rule:evenodd;stroke:none;stroke-width:1;stroke-linecap:square;stroke-linejoin:bevel">
        <path
           vector-effect="none"
           d="m 1.23438,-1.10938 0,2.07813 c 0,0.73958 0.03645,1.33333 0.10937,1.78125 C 1.92708,2.25 2.33854,1.88021 2.57812,1.64062 2.85938,1.35938 3.14062,0.971354 3.42188,0.476562 3.70312,-0.0182292 3.84375,-0.510417 3.84375,-1 c 0,-0.48958 -0.10417,-0.91146 -0.3125,-1.26562 -0.20833,-0.35417 -0.48958,-0.53126 -0.84375,-0.53126 -0.41667,0 -0.76562,0.15626 -1.04688,0.46876 -0.27083,0.35416 -0.40624,0.76041 -0.40624,1.21874 M 0.125,3.71875 -0.21875,-12.3438 c 0.25,-0.1354 0.497396,-0.2031 0.742188,-0.2031 0.244791,0 0.492182,0.0677 0.742182,0.2031 L 1.0625,-3.03125 c 0.71875,-0.61458 1.54167,-0.92187 2.46875,-0.92187 0.6875,0 1.26042,0.28124 1.71875,0.84374 0.45833,0.5625 0.6875,1.20313 0.6875,1.92188 0,0.458333 -0.15104,0.942708 -0.45312,1.453125 C 5.20312,0.734375 4.90625,1.10417 4.59375,1.375 4.41667,1.51042 3.96875,1.85938 3.25,2.42188 3.03125,2.57812 2.77865,2.76302 2.49219,2.97656 2.20573,3.1901 2.02604,3.32292 1.95312,3.375 1.82812,3.44792 1.71354,3.58854 1.60938,3.79688 1.48438,3.97396 1.34375,4.125 1.1875,4.25 1.0625,4.35417 0.911458,4.40625 0.734375,4.40625 0.557292,4.40625 0.416667,4.34375 0.3125,4.21875 0.1875,4.09375 0.125,3.92708 0.125,3.71875"
           id="path788"
           inkscape:connector-curvature="0"
           style="fill-rule:nonzero" />
      </g>
    </g>
  </g>
</svg>
