<?xml version="1.0" encoding="UTF-8" standalone="no"?><!DOCTYPE svg PUBLIC "-//W3C//DTD SVG 1.1//EN" "http://www.w3.org/Graphics/SVG/1.1/DTD/svg11.dtd"><svg width="100%" height="100%" viewBox="0 0 8409 7675" version="1.1" xmlns="http://www.w3.org/2000/svg" xmlns:xlink="http://www.w3.org/1999/xlink" xml:space="preserve" xmlns:serif="http://www.serif.com/" style="fill-rule:evenodd;clip-rule:evenodd;stroke-linecap:round;stroke-linejoin:round;stroke-miterlimit:1.5;"><g><g><circle cx="4161.792" cy="3835.648" r="3769.8" style="fill:none;stroke:#000;stroke-width:20.41px;"/><g><circle cx="4161.792" cy="3835.647" r="2544.951" style="fill:none;stroke:#000;stroke-width:20.39px;"/></g><g><circle cx="4161.788" cy="3835.652" r="1513.288" style="fill:none;stroke:#000;stroke-width:20.4px;"/></g></g><g><g><path d="M4121.54,2322.771l0,-2253.545m0,7522.808l0,-2241.101" style="fill:none;stroke:#000;stroke-width:21.52px;"/></g><g><path d="M2833.622,3096.436l-1951.398,-1126.64m6523.027,3766.071l-1940.227,-1120.19" style="fill:none;stroke:#000;stroke-width:21.53px;"/></g><g><path d="M3382.748,2534.765l-1122.048,-1943.444m3766.071,6523.027l-1128.936,-1955.375" style="fill:none;stroke:#000;stroke-width:21.53px;"/></g><g><path d="M3374.305,5134.468l-1120.682,1941.078m3761.898,-6515.796l-1121.355,1942.243" style="fill:none;stroke:#000;stroke-width:21.52px;"/></g><g><path d="M2830.744,4570.378l-1954.072,1128.184m6515.796,-3761.898l-1932.232,1115.575" style="fill:none;stroke:#000;stroke-width:21.52px;"/></g><g><path d="M2648.501,3830.627l-2247.542,0m7522.808,0l-2248.694,0" style="fill:none;stroke:#000;stroke-width:21.52px;"/></g></g><g id="maj_C"><g><path d="M4995.529,841.014l50.417,12.737c-10.614,41.395 -29.719,72.707 -57.316,94.465c-27.066,21.759 -60.5,32.373 -100.303,32.373c-40.864,0 -74.299,-7.961 -99.772,-24.943c-25.474,-16.452 -45.11,-40.864 -58.378,-72.176c-13.798,-31.842 -20.167,-65.807 -20.167,-101.895c0,-39.803 7.43,-74.299 22.82,-103.487c14.86,-29.719 36.619,-52.009 64.215,-67.4c28.127,-15.39 58.908,-22.82 92.343,-22.82c37.68,0 70.053,9.553 95.527,29.189c26.005,19.105 44.048,46.171 54.132,81.198l-49.356,11.676c-8.491,-27.597 -21.759,-47.763 -38.211,-59.97c-16.983,-12.737 -37.68,-19.105 -63.154,-19.105c-29.189,0 -53.601,6.899 -73.237,21.228c-19.636,13.798 -33.434,32.373 -41.395,56.255c-7.961,23.351 -12.206,47.763 -12.206,72.707c0,32.373 4.776,60.5 14.329,84.913c9.553,23.882 23.882,41.926 44.048,53.601c19.636,12.206 41.395,18.044 64.215,18.044c28.127,0 52.009,-7.961 71.645,-24.412c19.636,-15.921 32.904,-40.334 39.803,-72.176Z" style="fill-rule:nonzero;"/></g></g><g id="min_Am"><g><path d="M4333.597,2062.732l100.671,-263.066l37.476,0l107.651,263.066l-39.313,0l-30.863,-79.728l-109.856,0l-29.025,79.728l-36.741,0Zm75.687,-108.019l89.281,0l-27.556,-72.747c-8.45,-22.045 -14.696,-40.415 -18.738,-54.744c-3.307,16.901 -8.083,33.802 -13.962,50.335l-29.025,77.156Z" style="fill-rule:nonzero;"/></g><g><path d="M4603.274,2062.732l0,-190.686l29.025,0l0,26.821c5.879,-9.185 13.594,-16.901 23.514,-22.412c9.92,-5.879 21.31,-8.45 34.169,-8.45c13.962,0 25.719,2.939 34.537,8.818c9.185,5.879 15.431,13.962 19.105,24.617c15.064,-22.412 34.904,-33.434 58.786,-33.434c19.105,0 33.434,5.144 43.722,15.431c10.288,10.655 15.431,26.821 15.431,48.498l0,130.798l-32.332,0l0,-120.143c0,-12.859 -1.102,-22.045 -2.939,-27.923c-2.204,-5.511 -5.879,-10.288 -11.39,-13.594c-5.511,-3.307 -12.125,-5.144 -19.473,-5.144c-13.594,0 -24.617,4.409 -33.434,13.227c-8.818,9.185 -13.227,23.147 -13.227,42.987l0,110.591l-32.332,0l0,-123.818c0,-14.329 -2.572,-24.984 -7.716,-32.332c-5.511,-6.981 -13.962,-10.655 -26.086,-10.655c-9.185,0 -17.268,2.204 -24.984,6.981c-7.716,4.776 -13.594,11.757 -16.901,21.31c-3.307,9.185 -5.144,22.412 -5.144,39.68l0,98.834l-32.332,0Z" style="fill-rule:nonzero;"/></g></g><g id="min_Em"><g><path d="M5326.811,2532.231l0,-263.066l190.319,0l0,31.23l-155.415,0l0,80.463l145.495,0l0,30.863l-145.495,0l0,89.648l161.293,0l0,30.863l-196.197,0Z" style="fill-rule:nonzero;"/></g><g><path d="M5567.095,2532.231l0,-190.686l29.025,0l0,26.821c5.879,-9.185 13.594,-16.901 23.514,-22.412c9.92,-5.879 21.31,-8.45 34.169,-8.45c13.962,0 25.719,2.939 34.537,8.818c9.185,5.879 15.431,13.962 19.105,24.617c15.064,-22.412 34.904,-33.434 58.786,-33.434c19.105,0 33.434,5.144 43.722,15.431c10.288,10.655 15.431,26.821 15.431,48.498l0,130.798l-32.332,0l0,-120.143c0,-12.859 -1.102,-22.045 -2.939,-27.923c-2.204,-5.511 -5.879,-10.288 -11.39,-13.594c-5.511,-3.307 -12.125,-5.144 -19.473,-5.144c-13.594,0 -24.617,4.409 -33.434,13.227c-8.818,9.185 -13.227,23.147 -13.227,42.987l0,110.591l-32.332,0l0,-123.818c0,-14.329 -2.572,-24.984 -7.716,-32.332c-5.511,-6.981 -13.962,-10.655 -26.086,-10.655c-9.185,0 -17.268,2.204 -24.984,6.981c-7.716,4.776 -13.594,11.757 -16.901,21.31c-3.307,9.185 -5.144,22.412 -5.144,39.68l0,98.834l-32.332,0Z" style="fill-rule:nonzero;"/></g></g><g id="min_Bm"><g><path d="M5890.164,3461.647l0,-263.066l98.834,0c19.84,0 36.006,2.572 48.131,8.083c12.125,5.144 21.677,13.594 28.658,24.617c6.981,11.022 10.288,22.412 10.288,34.537c0,11.39 -2.939,22.045 -9.185,31.965c-5.879,9.92 -15.064,18.003 -27.556,23.882c15.799,4.776 28.291,12.492 36.741,23.882c8.45,11.39 12.859,24.617 12.859,39.68c0,12.492 -2.572,23.882 -7.716,34.537c-5.511,10.655 -11.757,18.738 -19.473,24.617c-7.716,5.511 -17.268,9.92 -28.658,12.859c-11.757,2.939 -25.719,4.409 -42.62,4.409l-100.303,0Zm34.904,-152.476l56.949,0c15.431,0 26.454,-1.102 33.067,-2.939c8.818,-2.939 15.431,-6.981 20.208,-13.227c4.409,-6.246 6.613,-13.594 6.613,-22.779c0,-8.818 -2.204,-16.533 -6.246,-23.147c-4.409,-6.613 -10.288,-11.39 -18.003,-13.594c-7.716,-2.572 -21.31,-3.674 -40.048,-3.674l-52.54,0l0,79.361Zm0,121.613l65.399,0c11.39,0 19.105,-0.735 23.882,-1.47c7.716,-1.47 14.696,-3.674 19.84,-6.981c5.511,-3.674 9.92,-8.45 13.227,-14.696c3.674,-6.613 5.511,-13.962 5.511,-22.412c0,-9.553 -2.572,-18.003 -7.716,-25.351c-5.144,-7.348 -12.125,-12.492 -20.942,-15.431c-8.818,-2.939 -21.677,-4.409 -38.578,-4.409l-60.623,0l0,90.751Z" style="fill-rule:nonzero;"/></g><g><path d="M6132.653,3461.647l0,-190.686l29.025,0l0,26.821c5.879,-9.185 13.594,-16.901 23.514,-22.412c9.92,-5.879 21.31,-8.45 34.169,-8.45c13.962,0 25.719,2.939 34.537,8.818c9.185,5.879 15.431,13.962 19.105,24.617c15.064,-22.412 34.904,-33.434 58.786,-33.434c19.105,0 33.434,5.144 43.722,15.431c10.288,10.655 15.431,26.821 15.431,48.498l0,130.798l-32.332,0l0,-120.143c0,-12.859 -1.102,-22.045 -2.939,-27.923c-2.204,-5.511 -5.879,-10.288 -11.39,-13.594c-5.511,-3.307 -12.125,-5.144 -19.473,-5.144c-13.594,0 -24.617,4.409 -33.434,13.227c-8.818,9.185 -13.227,23.147 -13.227,42.987l0,110.591l-32.332,0l0,-123.818c0,-14.329 -2.572,-24.984 -7.716,-32.332c-5.511,-6.981 -13.962,-10.655 -26.086,-10.655c-9.185,0 -17.268,2.204 -24.984,6.981c-7.716,4.776 -13.594,11.757 -16.901,21.31c-3.307,9.185 -5.144,22.412 -5.144,39.68l0,98.834l-32.332,0Z" style="fill-rule:nonzero;"/></g></g><g id="min_Fsm"><g><path d="M5821.04,4452.991l0,-263.066l177.46,0l0,31.23l-142.555,0l0,81.198l123.45,0l0,31.23l-123.45,0l0,119.409l-34.904,0Z" style="fill-rule:nonzero;"/></g><g><path d="M6033.712,4457.4l15.799,-76.421l-30.495,0l0,-26.821l35.639,0l13.594,-65.032l-49.233,0l0,-26.821l54.377,0l15.799,-76.789l26.821,0l-15.799,76.789l56.581,0l15.799,-76.789l26.821,0l-15.431,76.789l30.863,0l0,26.821l-36.374,0l-13.227,65.032l49.6,0l0,26.821l-55.112,0l-15.431,76.421l-27.188,0l15.431,-76.421l-56.214,0l-15.431,76.421l-27.188,0Zm48.131,-103.242l56.214,0l13.594,-65.032l-56.581,0l-13.227,65.032Z" style="fill-rule:nonzero;"/></g><g><path d="M6243.927,4452.991l0,-190.686l29.025,0l0,26.821c5.879,-9.185 13.594,-16.901 23.514,-22.412c9.92,-5.879 21.31,-8.45 34.169,-8.45c13.962,0 25.719,2.939 34.537,8.818c9.185,5.879 15.431,13.962 19.105,24.617c15.064,-22.412 34.904,-33.434 58.786,-33.434c19.105,0 33.434,5.144 43.722,15.431c10.288,10.655 15.431,26.821 15.431,48.498l0,130.798l-32.332,0l0,-120.143c0,-12.859 -1.102,-22.045 -2.939,-27.923c-2.204,-5.511 -5.879,-10.288 -11.39,-13.594c-5.511,-3.307 -12.125,-5.144 -19.473,-5.144c-13.594,0 -24.617,4.409 -33.434,13.227c-8.818,9.185 -13.227,23.147 -13.227,42.987l0,110.591l-32.332,0l0,-123.818c0,-14.329 -2.572,-24.984 -7.716,-32.332c-5.511,-6.981 -13.962,-10.655 -26.086,-10.655c-9.185,0 -17.268,2.204 -24.984,6.981c-7.716,4.776 -13.594,11.757 -16.901,21.31c-3.307,9.185 -5.144,22.412 -5.144,39.68l0,98.834l-32.332,0Z" style="fill-rule:nonzero;"/></g></g><g id="min_Csm"><g><path d="M5437.565,5292.392l34.904,8.818c-7.348,28.658 -20.575,50.335 -39.68,65.399c-18.738,15.064 -41.885,22.412 -69.441,22.412c-28.291,0 -51.438,-5.511 -69.073,-17.268c-17.636,-11.39 -31.23,-28.291 -40.415,-49.968c-9.553,-22.045 -13.962,-45.559 -13.962,-70.543c0,-27.556 5.144,-51.438 15.799,-71.645c10.288,-20.575 25.351,-36.006 44.457,-46.661c19.473,-10.655 40.783,-15.799 63.93,-15.799c26.086,0 48.498,6.613 66.134,20.208c18.003,13.227 30.495,31.965 37.476,56.214l-34.169,8.083c-5.879,-19.105 -15.064,-33.067 -26.454,-41.517c-11.757,-8.818 -26.086,-13.227 -43.722,-13.227c-20.208,0 -37.109,4.776 -50.703,14.696c-13.594,9.553 -23.147,22.412 -28.658,38.946c-5.511,16.166 -8.45,33.067 -8.45,50.335c0,22.412 3.307,41.885 9.92,58.786c6.613,16.533 16.533,29.025 30.495,37.109c13.594,8.45 28.658,12.492 44.457,12.492c19.473,0 36.006,-5.511 49.6,-16.901c13.594,-11.022 22.779,-27.923 27.556,-49.968Z" style="fill-rule:nonzero;"/></g><g><path d="M5505.23,5389.021l15.799,-76.421l-30.495,0l0,-26.821l35.639,0l13.594,-65.032l-49.233,0l0,-26.821l54.377,0l15.799,-76.789l26.821,0l-15.799,76.789l56.581,0l15.799,-76.789l26.821,0l-15.431,76.789l30.863,0l0,26.821l-36.374,0l-13.227,65.032l49.6,0l0,26.821l-55.112,0l-15.431,76.421l-27.188,0l15.431,-76.421l-56.214,0l-15.431,76.421l-27.188,0Zm48.131,-103.242l56.214,0l13.594,-65.032l-56.581,0l-13.227,65.032Z" style="fill-rule:nonzero;"/></g><g><path d="M5715.445,5384.612l0,-190.686l29.025,0l0,26.821c5.879,-9.185 13.594,-16.901 23.514,-22.412c9.92,-5.879 21.31,-8.45 34.169,-8.45c13.962,0 25.719,2.939 34.537,8.818c9.185,5.879 15.431,13.962 19.105,24.617c15.064,-22.412 34.904,-33.434 58.786,-33.434c19.105,0 33.434,5.144 43.722,15.431c10.288,10.655 15.431,26.821 15.431,48.498l0,130.798l-32.332,0l0,-120.143c0,-12.859 -1.102,-22.045 -2.939,-27.923c-2.204,-5.511 -5.879,-10.288 -11.39,-13.594c-5.511,-3.307 -12.125,-5.144 -19.473,-5.144c-13.594,0 -24.617,4.409 -33.434,13.227c-8.818,9.185 -13.227,23.147 -13.227,42.987l0,110.591l-32.332,0l0,-123.818c0,-14.329 -2.572,-24.984 -7.716,-32.332c-5.511,-6.981 -13.962,-10.655 -26.086,-10.655c-9.185,0 -17.268,2.204 -24.984,6.981c-7.716,4.776 -13.594,11.757 -16.901,21.31c-3.307,9.185 -5.144,22.412 -5.144,39.68l0,98.834l-32.332,0Z" style="fill-rule:nonzero;"/></g></g><g id="min_Gsm"><g><path d="M4445.566,5835.67l0,-30.863l111.326,0l0,97.364c-16.901,13.962 -34.537,23.882 -52.907,30.863c-18.003,6.981 -36.741,10.288 -55.846,10.288c-25.719,0 -49.233,-5.511 -70.543,-16.533c-20.942,-11.022 -37.109,-27.188 -47.763,-48.131c-10.655,-20.942 -16.166,-44.089 -16.166,-69.808c0,-25.719 5.511,-49.6 16.166,-72.013c10.655,-22.045 26.086,-38.578 46.294,-49.233c19.84,-10.655 42.987,-16.166 69.441,-16.166c18.738,0 36.006,2.939 51.438,9.185c15.431,6.246 27.556,14.696 36.006,25.719c8.818,11.022 15.431,25.351 20.208,42.987l-31.597,8.818c-4.042,-13.594 -8.818,-23.882 -14.696,-31.597c-5.879,-7.716 -14.329,-13.962 -24.984,-18.371c-11.022,-4.776 -23.147,-6.981 -36.374,-6.981c-15.799,0 -29.76,2.572 -41.15,7.348c-11.757,4.776 -20.942,11.022 -28.291,19.105c-6.981,7.716 -12.492,16.533 -16.533,26.086c-6.613,16.166 -9.92,33.802 -9.92,52.907c0,23.147 4.042,42.987 12.125,58.786c8.083,15.799 19.84,27.556 35.271,35.271c15.431,7.348 31.597,11.39 49.233,11.39c15.064,0 29.76,-2.939 44.089,-8.818c14.329,-5.879 24.984,-12.125 32.7,-18.371l0,-49.233l-77.524,0Z" style="fill-rule:nonzero;"/></g><g><path d="M4598.347,5943.322l15.799,-76.421l-30.495,0l0,-26.821l35.639,0l13.594,-65.032l-49.233,0l0,-26.821l54.377,0l15.799,-76.789l26.821,0l-15.799,76.789l56.581,0l15.799,-76.789l26.821,0l-15.431,76.789l30.863,0l0,26.821l-36.374,0l-13.227,65.032l49.6,0l0,26.821l-55.112,0l-15.431,76.421l-27.188,0l15.431,-76.421l-56.214,0l-15.431,76.421l-27.188,0Zm48.131,-103.242l56.214,0l13.594,-65.032l-56.581,0l-13.227,65.032Z" style="fill-rule:nonzero;"/></g><g><path d="M4808.562,5938.913l0,-190.686l29.025,0l0,26.821c5.879,-9.185 13.594,-16.901 23.514,-22.412c9.92,-5.879 21.31,-8.45 34.169,-8.45c13.962,0 25.719,2.939 34.537,8.818c9.185,5.879 15.431,13.962 19.105,24.617c15.064,-22.412 34.904,-33.434 58.786,-33.434c19.105,0 33.434,5.144 43.722,15.431c10.288,10.655 15.431,26.821 15.431,48.498l0,130.798l-32.332,0l0,-120.143c0,-12.859 -1.102,-22.045 -2.939,-27.923c-2.204,-5.511 -5.879,-10.288 -11.39,-13.594c-5.511,-3.307 -12.125,-5.144 -19.473,-5.144c-13.594,0 -24.617,4.409 -33.434,13.227c-8.818,9.185 -13.227,23.147 -13.227,42.987l0,110.591l-32.332,0l0,-123.818c0,-14.329 -2.572,-24.984 -7.716,-32.332c-5.511,-6.981 -13.962,-10.655 -26.086,-10.655c-9.185,0 -17.268,2.204 -24.984,6.981c-7.716,4.776 -13.594,11.757 -16.901,21.31c-3.307,9.185 -5.144,22.412 -5.144,39.68l0,98.834l-32.332,0Z" style="fill-rule:nonzero;"/></g></g><g id="min_Ebm_Dsm"><g><path d="M3240.468,5742.471l0,-263.066l190.319,0l0,31.23l-155.415,0l0,80.463l145.495,0l0,30.863l-145.495,0l0,89.648l161.293,0l0,30.863l-196.197,0Z" style="fill-rule:nonzero;"/></g><g><path d="M3510.512,5742.471l-30.128,0l0,-263.066l32.332,0l0,94.057c13.594,-17.268 31.23,-25.719 52.172,-25.719c11.757,0 23.147,2.204 33.434,6.981c10.288,4.776 19.105,11.39 25.719,19.84c6.981,8.45 12.125,19.105 16.166,30.863c3.674,12.125 5.511,24.984 5.511,38.946c0,32.7 -8.083,57.684 -24.249,75.687c-16.166,17.636 -35.271,26.821 -58.051,26.821c-22.412,0 -40.048,-9.553 -52.907,-28.291l0,23.882Zm-0.367,-96.629c0,22.779 2.939,39.313 9.185,49.6c10.288,16.533 23.882,24.617 41.517,24.617c13.962,0 26.086,-5.879 36.374,-18.371c10.288,-12.125 15.431,-30.495 15.431,-54.744c0,-24.617 -4.776,-42.987 -14.696,-55.112c-9.92,-11.757 -21.677,-17.636 -35.639,-17.636c-14.329,0 -26.454,6.246 -36.741,18.371c-10.288,12.125 -15.431,30.128 -15.431,53.275Z" style="fill-rule:nonzero;"/></g><g><path d="M3685.088,5742.471l0,-190.686l29.025,0l0,26.821c5.879,-9.185 13.594,-16.901 23.514,-22.412c9.92,-5.879 21.31,-8.45 34.169,-8.45c13.962,0 25.719,2.939 34.537,8.818c9.185,5.879 15.431,13.962 19.105,24.617c15.064,-22.412 34.904,-33.434 58.786,-33.434c19.105,0 33.434,5.144 43.722,15.431c10.288,10.655 15.431,26.821 15.431,48.498l0,130.798l-32.332,0l0,-120.143c0,-12.859 -1.102,-22.045 -2.939,-27.923c-2.204,-5.511 -5.879,-10.288 -11.39,-13.594c-5.511,-3.307 -12.125,-5.144 -19.473,-5.144c-13.594,0 -24.617,4.409 -33.434,13.227c-8.818,9.185 -13.227,23.147 -13.227,42.987l0,110.591l-32.332,0l0,-123.818c0,-14.329 -2.572,-24.984 -7.716,-32.332c-5.511,-6.981 -13.962,-10.655 -26.086,-10.655c-9.185,0 -17.268,2.204 -24.984,6.981c-7.716,4.776 -13.594,11.757 -16.901,21.31c-3.307,9.185 -5.144,22.412 -5.144,39.68l0,98.834l-32.332,0Z" style="fill-rule:nonzero;"/></g><g><path d="M3966.895,5746.879l76.421,-271.884l25.719,0l-76.054,271.884l-26.086,0Z" style="fill-rule:nonzero;"/></g><g><path d="M3239.733,6109.882l0,-263.066l90.751,0c20.208,0 36.006,1.47 46.661,3.674c15.064,3.674 27.923,9.92 38.578,19.105c13.962,11.757 24.249,26.454 31.23,44.824c6.981,18.371 10.288,38.946 10.288,62.46c0,20.208 -2.204,37.843 -6.981,53.275c-4.776,15.431 -10.655,27.923 -18.003,38.211c-7.348,9.92 -15.431,18.003 -23.882,23.882c-8.818,5.879 -19.105,10.288 -31.597,13.227c-12.125,2.939 -26.086,4.409 -42.252,4.409l-94.792,0Zm34.904,-30.863l56.214,0c17.268,0 30.863,-1.837 40.783,-5.144c9.92,-2.939 17.636,-7.716 23.514,-13.594c8.083,-8.083 14.696,-19.105 19.105,-33.067c4.776,-13.962 6.981,-30.863 6.981,-50.703c0,-27.556 -4.409,-48.866 -13.594,-63.562c-8.818,-14.696 -19.84,-24.617 -32.7,-29.76c-9.553,-3.307 -24.249,-5.144 -45.192,-5.144l-55.112,0l0,200.974Z" style="fill-rule:nonzero;"/></g><g><path d="M3495.145,6114.29l15.799,-76.421l-30.495,0l0,-26.821l35.639,0l13.594,-65.032l-49.233,0l0,-26.821l54.377,0l15.799,-76.789l26.821,0l-15.799,76.789l56.581,0l15.799,-76.789l26.821,0l-15.431,76.789l30.863,0l0,26.821l-36.374,0l-13.227,65.032l49.6,0l0,26.821l-55.112,0l-15.431,76.421l-27.188,0l15.431,-76.421l-56.214,0l-15.431,76.421l-27.188,0Zm48.131,-103.242l56.214,0l13.594,-65.032l-56.581,0l-13.227,65.032Z" style="fill-rule:nonzero;"/></g><g><path d="M3705.36,6109.882l0,-190.686l29.025,0l0,26.821c5.879,-9.185 13.594,-16.901 23.514,-22.412c9.92,-5.879 21.31,-8.45 34.169,-8.45c13.962,0 25.719,2.939 34.537,8.818c9.185,5.879 15.431,13.962 19.105,24.617c15.064,-22.412 34.904,-33.434 58.786,-33.434c19.105,0 33.434,5.144 43.722,15.431c10.288,10.655 15.431,26.821 15.431,48.498l0,130.798l-32.332,0l0,-120.143c0,-12.859 -1.102,-22.045 -2.939,-27.923c-2.204,-5.511 -5.879,-10.288 -11.39,-13.594c-5.511,-3.307 -12.125,-5.144 -19.473,-5.144c-13.594,0 -24.617,4.409 -33.434,13.227c-8.818,9.185 -13.227,23.147 -13.227,42.987l0,110.591l-32.332,0l0,-123.818c0,-14.329 -2.572,-24.984 -7.716,-32.332c-5.511,-6.981 -13.962,-10.655 -26.086,-10.655c-9.185,0 -17.268,2.204 -24.984,6.981c-7.716,4.776 -13.594,11.757 -16.901,21.31c-3.307,9.185 -5.144,22.412 -5.144,39.68l0,98.834l-32.332,0Z" style="fill-rule:nonzero;"/></g></g><g id="min_Bbm"><g><path d="M2404.385,5349.157l0,-263.066l98.834,0c19.84,0 36.006,2.572 48.131,8.083c12.125,5.144 21.677,13.594 28.658,24.617c6.981,11.022 10.288,22.412 10.288,34.537c0,11.39 -2.939,22.045 -9.185,31.965c-5.879,9.92 -15.064,18.003 -27.556,23.882c15.799,4.776 28.291,12.492 36.741,23.882c8.45,11.39 12.859,24.617 12.859,39.68c0,12.492 -2.572,23.882 -7.716,34.537c-5.511,10.655 -11.757,18.738 -19.473,24.617c-7.716,5.511 -17.268,9.92 -28.658,12.859c-11.757,2.939 -25.719,4.409 -42.62,4.409l-100.303,0Zm34.904,-152.476l56.949,0c15.431,0 26.454,-1.102 33.067,-2.939c8.818,-2.939 15.431,-6.981 20.208,-13.227c4.409,-6.246 6.613,-13.594 6.613,-22.779c0,-8.818 -2.204,-16.533 -6.246,-23.147c-4.409,-6.613 -10.288,-11.39 -18.003,-13.594c-7.716,-2.572 -21.31,-3.674 -40.048,-3.674l-52.54,0l0,79.361Zm0,121.613l65.399,0c11.39,0 19.105,-0.735 23.882,-1.47c7.716,-1.47 14.696,-3.674 19.84,-6.981c5.511,-3.674 9.92,-8.45 13.227,-14.696c3.674,-6.613 5.511,-13.962 5.511,-22.412c0,-9.553 -2.572,-18.003 -7.716,-25.351c-5.144,-7.348 -12.125,-12.492 -20.942,-15.431c-8.818,-2.939 -21.677,-4.409 -38.578,-4.409l-60.623,0l0,90.751Z" style="fill-rule:nonzero;"/></g><g><path d="M2676.634,5349.157l-30.128,0l0,-263.066l32.332,0l0,94.057c13.594,-17.268 31.23,-25.719 52.172,-25.719c11.757,0 23.147,2.204 33.434,6.981c10.288,4.776 19.105,11.39 25.719,19.84c6.981,8.45 12.125,19.105 16.166,30.863c3.674,12.125 5.511,24.984 5.511,38.946c0,32.7 -8.083,57.684 -24.249,75.687c-16.166,17.636 -35.271,26.821 -58.051,26.821c-22.412,0 -40.048,-9.553 -52.907,-28.291l0,23.882Zm-0.367,-96.629c0,22.779 2.939,39.313 9.185,49.6c10.288,16.533 23.882,24.617 41.517,24.617c13.962,0 26.086,-5.879 36.374,-18.371c10.288,-12.125 15.431,-30.495 15.431,-54.744c0,-24.617 -4.776,-42.987 -14.696,-55.112c-9.92,-11.757 -21.677,-17.636 -35.639,-17.636c-14.329,0 -26.454,6.246 -36.741,18.371c-10.288,12.125 -15.431,30.128 -15.431,53.275Z" style="fill-rule:nonzero;"/></g><g><path d="M2851.21,5349.157l0,-190.686l29.025,0l0,26.821c5.879,-9.185 13.594,-16.901 23.514,-22.412c9.92,-5.879 21.31,-8.45 34.169,-8.45c13.962,0 25.719,2.939 34.537,8.818c9.185,5.879 15.431,13.962 19.105,24.617c15.064,-22.412 34.904,-33.434 58.786,-33.434c19.105,0 33.434,5.144 43.722,15.431c10.288,10.655 15.431,26.821 15.431,48.498l0,130.798l-32.332,0l0,-120.143c0,-12.859 -1.102,-22.045 -2.939,-27.923c-2.204,-5.511 -5.879,-10.288 -11.39,-13.594c-5.511,-3.307 -12.125,-5.144 -19.473,-5.144c-13.594,0 -24.617,4.409 -33.434,13.227c-8.818,9.185 -13.227,23.147 -13.227,42.987l0,110.591l-32.332,0l0,-123.818c0,-14.329 -2.572,-24.984 -7.716,-32.332c-5.511,-6.981 -13.962,-10.655 -26.086,-10.655c-9.185,0 -17.268,2.204 -24.984,6.981c-7.716,4.776 -13.594,11.757 -16.901,21.31c-3.307,9.185 -5.144,22.412 -5.144,39.68l0,98.834l-32.332,0Z" style="fill-rule:nonzero;"/></g></g><g id="min_Fm"><g><path d="M1965.483,4467.871l0,-263.066l177.46,0l0,31.23l-142.555,0l0,81.198l123.45,0l0,31.23l-123.45,0l0,119.409l-34.904,0Z" style="fill-rule:nonzero;"/></g><g><path d="M2184.034,4467.871l0,-190.686l29.025,0l0,26.821c5.879,-9.185 13.594,-16.901 23.514,-22.412c9.92,-5.879 21.31,-8.45 34.169,-8.45c13.962,0 25.719,2.939 34.537,8.818c9.185,5.879 15.431,13.962 19.105,24.617c15.064,-22.412 34.904,-33.434 58.786,-33.434c19.105,0 33.434,5.144 43.722,15.431c10.288,10.655 15.431,26.821 15.431,48.498l0,130.798l-32.332,0l0,-120.143c0,-12.859 -1.102,-22.045 -2.939,-27.923c-2.204,-5.511 -5.879,-10.288 -11.39,-13.594c-5.511,-3.307 -12.125,-5.144 -19.473,-5.144c-13.594,0 -24.617,4.409 -33.434,13.227c-8.818,9.185 -13.227,23.147 -13.227,42.987l0,110.591l-32.332,0l0,-123.818c0,-14.329 -2.572,-24.984 -7.716,-32.332c-5.511,-6.981 -13.962,-10.655 -26.086,-10.655c-9.185,0 -17.268,2.204 -24.984,6.981c-7.716,4.776 -13.594,11.757 -16.901,21.31c-3.307,9.185 -5.144,22.412 -5.144,39.68l0,98.834l-32.332,0Z" style="fill-rule:nonzero;"/></g></g><g id="min_Cm"><g><path d="M2103.582,3337.23l34.904,8.818c-7.348,28.658 -20.575,50.335 -39.68,65.399c-18.738,15.064 -41.885,22.412 -69.441,22.412c-28.291,0 -51.438,-5.511 -69.073,-17.268c-17.636,-11.39 -31.23,-28.291 -40.415,-49.968c-9.553,-22.045 -13.962,-45.559 -13.962,-70.543c0,-27.556 5.144,-51.438 15.799,-71.645c10.288,-20.575 25.351,-36.006 44.457,-46.661c19.473,-10.655 40.783,-15.799 63.93,-15.799c26.086,0 48.498,6.613 66.134,20.208c18.003,13.227 30.495,31.965 37.476,56.214l-34.169,8.083c-5.879,-19.105 -15.064,-33.067 -26.454,-41.517c-11.757,-8.818 -26.086,-13.227 -43.722,-13.227c-20.208,0 -37.109,4.776 -50.703,14.696c-13.594,9.553 -23.147,22.412 -28.658,38.946c-5.511,16.166 -8.45,33.067 -8.45,50.335c0,22.412 3.307,41.885 9.92,58.786c6.613,16.533 16.533,29.025 30.495,37.109c13.594,8.45 28.658,12.492 44.457,12.492c19.473,0 36.006,-5.511 49.6,-16.901c13.594,-11.022 22.779,-27.923 27.556,-49.968Z" style="fill-rule:nonzero;"/></g><g><path d="M2177.126,3429.45l0,-190.686l29.025,0l0,26.821c5.879,-9.185 13.594,-16.901 23.514,-22.412c9.92,-5.879 21.31,-8.45 34.169,-8.45c13.962,0 25.719,2.939 34.537,8.818c9.185,5.879 15.431,13.962 19.105,24.617c15.064,-22.412 34.904,-33.434 58.786,-33.434c19.105,0 33.434,5.144 43.722,15.431c10.288,10.655 15.431,26.821 15.431,48.498l0,130.798l-32.332,0l0,-120.143c0,-12.859 -1.102,-22.045 -2.939,-27.923c-2.204,-5.511 -5.879,-10.288 -11.39,-13.594c-5.511,-3.307 -12.125,-5.144 -19.473,-5.144c-13.594,0 -24.617,4.409 -33.434,13.227c-8.818,9.185 -13.227,23.147 -13.227,42.987l0,110.591l-32.332,0l0,-123.818c0,-14.329 -2.572,-24.984 -7.716,-32.332c-5.511,-6.981 -13.962,-10.655 -26.086,-10.655c-9.185,0 -17.268,2.204 -24.984,6.981c-7.716,4.776 -13.594,11.757 -16.901,21.31c-3.307,9.185 -5.144,22.412 -5.144,39.68l0,98.834l-32.332,0Z" style="fill-rule:nonzero;"/></g></g><g id="min_Gm"><g><path d="M2533.12,2446.14l0,-30.863l111.326,0l0,97.364c-16.901,13.962 -34.537,23.882 -52.907,30.863c-18.003,6.981 -36.741,10.288 -55.846,10.288c-25.719,0 -49.233,-5.511 -70.543,-16.533c-20.942,-11.022 -37.109,-27.188 -47.763,-48.131c-10.655,-20.942 -16.166,-44.089 -16.166,-69.808c0,-25.719 5.511,-49.6 16.166,-72.013c10.655,-22.045 26.086,-38.578 46.294,-49.233c19.84,-10.655 42.987,-16.166 69.441,-16.166c18.738,0 36.006,2.939 51.438,9.185c15.431,6.246 27.556,14.696 36.006,25.719c8.818,11.022 15.431,25.351 20.208,42.987l-31.597,8.818c-4.042,-13.594 -8.818,-23.882 -14.696,-31.597c-5.879,-7.716 -14.329,-13.962 -24.984,-18.371c-11.022,-4.776 -23.147,-6.981 -36.374,-6.981c-15.799,0 -29.76,2.572 -41.15,7.348c-11.757,4.776 -20.942,11.022 -28.291,19.105c-6.981,7.716 -12.492,16.533 -16.533,26.086c-6.613,16.166 -9.92,33.802 -9.92,52.907c0,23.147 4.042,42.987 12.125,58.786c8.083,15.799 19.84,27.556 35.271,35.271c15.431,7.348 31.597,11.39 49.233,11.39c15.064,0 29.76,-2.939 44.089,-8.818c14.329,-5.879 24.984,-12.125 32.7,-18.371l0,-49.233l-77.524,0Z" style="fill-rule:nonzero;"/></g><g><path d="M2691.78,2549.383l0,-190.686l29.025,0l0,26.821c5.879,-9.185 13.594,-16.901 23.514,-22.412c9.92,-5.879 21.31,-8.45 34.169,-8.45c13.962,0 25.719,2.939 34.537,8.818c9.185,5.879 15.431,13.962 19.105,24.617c15.064,-22.412 34.904,-33.434 58.786,-33.434c19.105,0 33.434,5.144 43.722,15.431c10.288,10.655 15.431,26.821 15.431,48.498l0,130.798l-32.332,0l0,-120.143c0,-12.859 -1.102,-22.045 -2.939,-27.923c-2.204,-5.511 -5.879,-10.288 -11.39,-13.594c-5.511,-3.307 -12.125,-5.144 -19.473,-5.144c-13.594,0 -24.617,4.409 -33.434,13.227c-8.818,9.185 -13.227,23.147 -13.227,42.987l0,110.591l-32.332,0l0,-123.818c0,-14.329 -2.572,-24.984 -7.716,-32.332c-5.511,-6.981 -13.962,-10.655 -26.086,-10.655c-9.185,0 -17.268,2.204 -24.984,6.981c-7.716,4.776 -13.594,11.757 -16.901,21.31c-3.307,9.185 -5.144,22.412 -5.144,39.68l0,98.834l-32.332,0Z" style="fill-rule:nonzero;"/></g></g><g id="min_Dm"><g><path d="M3321.796,2055.686l0,-263.066l90.751,0c20.208,0 36.006,1.47 46.661,3.674c15.064,3.674 27.923,9.92 38.578,19.105c13.962,11.757 24.249,26.454 31.23,44.824c6.981,18.371 10.288,38.946 10.288,62.46c0,20.208 -2.204,37.843 -6.981,53.275c-4.776,15.431 -10.655,27.923 -18.003,38.211c-7.348,9.92 -15.431,18.003 -23.882,23.882c-8.818,5.879 -19.105,10.288 -31.597,13.227c-12.125,2.939 -26.086,4.409 -42.252,4.409l-94.792,0Zm34.904,-30.863l56.214,0c17.268,0 30.863,-1.837 40.783,-5.144c9.92,-2.939 17.636,-7.716 23.514,-13.594c8.083,-8.083 14.696,-19.105 19.105,-33.067c4.776,-13.962 6.981,-30.863 6.981,-50.703c0,-27.556 -4.409,-48.866 -13.594,-63.562c-8.818,-14.696 -19.84,-24.617 -32.7,-29.76c-9.553,-3.307 -24.249,-5.144 -45.192,-5.144l-55.112,0l0,200.974Z" style="fill-rule:nonzero;"/></g><g><path d="M3583.087,2055.686l0,-190.686l29.025,0l0,26.821c5.879,-9.185 13.594,-16.901 23.514,-22.412c9.92,-5.879 21.31,-8.45 34.169,-8.45c13.962,0 25.719,2.939 34.537,8.818c9.185,5.879 15.431,13.962 19.105,24.617c15.064,-22.412 34.904,-33.434 58.786,-33.434c19.105,0 33.434,5.144 43.722,15.431c10.288,10.655 15.431,26.821 15.431,48.498l0,130.798l-32.332,0l0,-120.143c0,-12.859 -1.102,-22.045 -2.939,-27.923c-2.204,-5.511 -5.879,-10.288 -11.39,-13.594c-5.511,-3.307 -12.125,-5.144 -19.473,-5.144c-13.594,0 -24.617,4.409 -33.434,13.227c-8.818,9.185 -13.227,23.147 -13.227,42.987l0,110.591l-32.332,0l0,-123.818c0,-14.329 -2.572,-24.984 -7.716,-32.332c-5.511,-6.981 -13.962,-10.655 -26.086,-10.655c-9.185,0 -17.268,2.204 -24.984,6.981c-7.716,4.776 -13.594,11.757 -16.901,21.31c-3.307,9.185 -5.144,22.412 -5.144,39.68l0,98.834l-32.332,0Z" style="fill-rule:nonzero;"/></g></g><g id="maj_E"><g><path d="M6263.627,6243.568l0,-379.985l274.905,0l0,45.11l-224.488,0l0,116.224l210.159,0l0,44.579l-210.159,0l0,129.492l232.979,0l0,44.579l-283.396,0Z" style="fill-rule:nonzero;"/></g></g><g id="maj_B"><g><path d="M4782.512,7120.997l0,-379.985l142.76,0c28.658,0 52.009,3.715 69.522,11.676c17.513,7.43 31.312,19.636 41.395,35.557c10.083,15.921 14.86,32.373 14.86,49.886c0,16.452 -4.246,31.842 -13.268,46.171c-8.491,14.329 -21.759,26.005 -39.803,34.496c22.82,6.899 40.864,18.044 53.07,34.496c12.206,16.452 18.575,35.557 18.575,57.316c0,18.044 -3.715,34.496 -11.145,49.886c-7.961,15.39 -16.983,27.066 -28.127,35.557c-11.145,7.961 -24.943,14.329 -41.395,18.575c-16.983,4.246 -37.149,6.368 -61.562,6.368l-144.882,0Zm50.417,-220.242l82.259,0c22.29,0 38.211,-1.592 47.763,-4.246c12.737,-4.246 22.29,-10.083 29.189,-19.105c6.368,-9.022 9.553,-19.636 9.553,-32.904c0,-12.737 -3.184,-23.882 -9.022,-33.434c-6.368,-9.553 -14.86,-16.452 -26.005,-19.636c-11.145,-3.715 -30.781,-5.307 -57.847,-5.307l-75.891,0l0,114.632Zm0,175.663l94.465,0c16.452,0 27.597,-1.061 34.496,-2.123c11.145,-2.123 21.228,-5.307 28.658,-10.083c7.961,-5.307 14.329,-12.206 19.105,-21.228c5.307,-9.553 7.961,-20.167 7.961,-32.373c0,-13.798 -3.715,-26.005 -11.145,-36.619c-7.43,-10.614 -17.513,-18.044 -30.25,-22.29c-12.737,-4.246 -31.312,-6.368 -55.724,-6.368l-87.566,0l0,131.084Z" style="fill-rule:nonzero;"/></g></g><g id="maj_Gb_Fs"><g><path d="M2770.227,6899.193l0,-44.579l160.804,0l0,140.637c-24.412,20.167 -49.886,34.496 -76.421,44.579c-26.005,10.083 -53.07,14.86 -80.667,14.86c-37.149,0 -71.114,-7.961 -101.895,-23.882c-30.25,-15.921 -53.601,-39.272 -68.992,-69.522c-15.39,-30.25 -23.351,-63.685 -23.351,-100.834c0,-37.149 7.961,-71.645 23.351,-104.018c15.39,-31.842 37.68,-55.724 66.869,-71.114c28.658,-15.39 62.092,-23.351 100.303,-23.351c27.066,0 52.009,4.246 74.299,13.268c22.29,9.022 39.803,21.228 52.009,37.149c12.737,15.921 22.29,36.619 29.189,62.092l-45.641,12.737c-5.838,-19.636 -12.737,-34.496 -21.228,-45.641c-8.491,-11.145 -20.697,-20.167 -36.088,-26.535c-15.921,-6.899 -33.434,-10.083 -52.54,-10.083c-22.82,0 -42.987,3.715 -59.439,10.614c-16.983,6.899 -30.25,15.921 -40.864,27.597c-10.083,11.145 -18.044,23.882 -23.882,37.68c-9.553,23.351 -14.329,48.825 -14.329,76.421c0,33.434 5.838,62.092 17.513,84.913c11.676,22.82 28.658,39.803 50.948,50.948c22.29,10.614 45.641,16.452 71.114,16.452c21.759,0 42.987,-4.246 63.685,-12.737c20.697,-8.491 36.088,-17.513 47.233,-26.535l0,-71.114l-111.979,0Z" style="fill-rule:nonzero;"/></g><g><path d="M3042.389,7048.321l-43.518,0l0,-379.985l46.702,0l0,135.86c19.636,-24.943 45.11,-37.149 75.36,-37.149c16.983,0 33.434,3.184 48.294,10.083c14.86,6.899 27.597,16.452 37.149,28.658c10.083,12.206 17.513,27.597 23.351,44.579c5.307,17.513 7.961,36.088 7.961,56.255c0,47.233 -11.676,83.321 -35.027,109.325c-23.351,25.474 -50.948,38.741 -83.851,38.741c-32.373,0 -57.847,-13.798 -76.421,-40.864l0,34.496Zm-0.531,-139.575c0,32.904 4.246,56.785 13.268,71.645c14.86,23.882 34.496,35.557 59.97,35.557c20.167,0 37.68,-8.491 52.54,-26.535c14.86,-17.513 22.29,-44.048 22.29,-79.075c0,-35.557 -6.899,-62.092 -21.228,-79.606c-14.329,-16.983 -31.312,-25.474 -51.478,-25.474c-20.697,0 -38.211,9.022 -53.07,26.535c-14.86,17.513 -22.29,43.518 -22.29,76.952Z" style="fill-rule:nonzero;"/></g><g><path d="M3259.528,7054.689l110.387,-392.722l37.149,0l-109.856,392.722l-37.68,0Z" style="fill-rule:nonzero;"/></g><g><path d="M3450.493,7048.321l0,-379.985l256.33,0l0,45.11l-205.913,0l0,117.286l178.317,0l0,45.11l-178.317,0l0,172.479l-50.417,0Z" style="fill-rule:nonzero;"/></g><g><path d="M3757.686,7054.689l22.82,-110.387l-44.048,0l0,-38.741l51.478,0l19.636,-93.935l-71.114,0l0,-38.741l78.544,0l22.82,-110.917l38.741,0l-22.82,110.917l81.729,0l22.82,-110.917l38.741,0l-22.29,110.917l44.579,0l0,38.741l-52.54,0l-19.105,93.935l71.645,0l0,38.741l-79.606,0l-22.29,110.387l-39.272,0l22.29,-110.387l-81.198,0l-22.29,110.387l-39.272,0Zm69.522,-149.128l81.198,0l19.636,-93.935l-81.729,0l-19.105,93.935Z" style="fill-rule:nonzero;"/></g></g><g id="maj_Db"><g><path d="M1669.786,6275.043l0,-379.985l131.084,0c29.189,0 52.009,2.123 67.4,5.307c21.759,5.307 40.334,14.329 55.724,27.597c20.167,16.983 35.027,38.211 45.11,64.746c10.083,26.535 14.86,56.255 14.86,90.22c0,29.189 -3.184,54.663 -10.083,76.952c-6.899,22.29 -15.39,40.334 -26.005,55.193c-10.614,14.329 -22.29,26.005 -34.496,34.496c-12.737,8.491 -27.597,14.86 -45.641,19.105c-17.513,4.246 -37.68,6.368 -61.031,6.368l-136.922,0Zm50.417,-44.579l81.198,0c24.943,0 44.579,-2.654 58.908,-7.43c14.329,-4.246 25.474,-11.145 33.965,-19.636c11.676,-11.676 21.228,-27.597 27.597,-47.763c6.899,-20.167 10.083,-44.579 10.083,-73.237c0,-39.803 -6.368,-70.584 -19.636,-91.812c-12.737,-21.228 -28.658,-35.557 -47.233,-42.987c-13.798,-4.776 -35.027,-7.43 -65.277,-7.43l-79.606,0l0,290.296Z" style="fill-rule:nonzero;"/></g><g><path d="M2090.193,6275.043l-43.518,0l0,-379.985l46.702,0l0,135.86c19.636,-24.943 45.11,-37.149 75.36,-37.149c16.983,0 33.434,3.184 48.294,10.083c14.86,6.899 27.597,16.452 37.149,28.658c10.083,12.206 17.513,27.597 23.351,44.579c5.307,17.513 7.961,36.088 7.961,56.255c0,47.233 -11.676,83.321 -35.027,109.325c-23.351,25.474 -50.948,38.741 -83.851,38.741c-32.373,0 -57.847,-13.798 -76.421,-40.864l0,34.496Zm-0.531,-139.575c0,32.904 4.246,56.785 13.268,71.645c14.86,23.882 34.496,35.557 59.97,35.557c20.167,0 37.68,-8.491 52.54,-26.535c14.86,-17.513 22.29,-44.048 22.29,-79.075c0,-35.557 -6.899,-62.092 -21.228,-79.606c-14.329,-16.983 -31.312,-25.474 -51.478,-25.474c-20.697,0 -38.211,9.022 -53.07,26.535c-14.86,17.513 -22.29,43.518 -22.29,76.952Z" style="fill-rule:nonzero;"/></g></g><g id="maj_Ab"><g><path d="M794.021,4854.04l145.413,-379.985l54.132,0l155.496,379.985l-56.785,0l-44.579,-115.163l-158.681,0l-41.926,115.163l-53.07,0Zm109.325,-156.027l128.961,0l-39.803,-105.08c-12.206,-31.842 -21.228,-58.378 -27.066,-79.075c-4.776,24.412 -11.676,48.825 -20.167,72.707l-41.926,111.448Z" style="fill-rule:nonzero;"/></g><g><path d="M1226.541,4854.04l-43.518,0l0,-379.985l46.702,0l0,135.86c19.636,-24.943 45.11,-37.149 75.36,-37.149c16.983,0 33.434,3.184 48.294,10.083c14.86,6.899 27.597,16.452 37.149,28.658c10.083,12.206 17.513,27.597 23.351,44.579c5.307,17.513 7.961,36.088 7.961,56.255c0,47.233 -11.676,83.321 -35.027,109.325c-23.351,25.474 -50.948,38.741 -83.851,38.741c-32.373,0 -57.847,-13.798 -76.421,-40.864l0,34.496Zm-0.531,-139.575c0,32.904 4.246,56.785 13.268,71.645c14.86,23.882 34.496,35.557 59.97,35.557c20.167,0 37.68,-8.491 52.54,-26.535c14.86,-17.513 22.29,-44.048 22.29,-79.075c0,-35.557 -6.899,-62.092 -21.228,-79.606c-14.329,-16.983 -31.312,-25.474 -51.478,-25.474c-20.697,0 -38.211,9.022 -53.07,26.535c-14.86,17.513 -22.29,43.518 -22.29,76.952Z" style="fill-rule:nonzero;"/></g></g><g id="maj_Eb"><g><path d="M808.064,3264.475l0,-379.985l274.905,0l0,45.11l-224.488,0l0,116.224l210.159,0l0,44.579l-210.159,0l0,129.492l232.979,0l0,44.579l-283.396,0Z" style="fill-rule:nonzero;"/></g><g><path d="M1198.128,3264.475l-43.518,0l0,-379.985l46.702,0l0,135.86c19.636,-24.943 45.11,-37.149 75.36,-37.149c16.983,0 33.434,3.184 48.294,10.083c14.86,6.899 27.597,16.452 37.149,28.658c10.083,12.206 17.513,27.597 23.351,44.579c5.307,17.513 7.961,36.088 7.961,56.255c0,47.233 -11.676,83.321 -35.027,109.325c-23.351,25.474 -50.948,38.741 -83.851,38.741c-32.373,0 -57.847,-13.798 -76.421,-40.864l0,34.496Zm-0.531,-139.575c0,32.904 4.246,56.785 13.268,71.645c14.86,23.882 34.496,35.557 59.97,35.557c20.167,0 37.68,-8.491 52.54,-26.535c14.86,-17.513 22.29,-44.048 22.29,-79.075c0,-35.557 -6.899,-62.092 -21.228,-79.606c-14.329,-16.983 -31.312,-25.474 -51.478,-25.474c-20.697,0 -38.211,9.022 -53.07,26.535c-14.86,17.513 -22.29,43.518 -22.29,76.952Z" style="fill-rule:nonzero;"/></g></g><g id="maj_Bb"><g><path d="M1634.545,1830.004l0,-379.985l142.76,0c28.658,0 52.009,3.715 69.522,11.676c17.513,7.43 31.312,19.636 41.395,35.557c10.083,15.921 14.86,32.373 14.86,49.886c0,16.452 -4.246,31.842 -13.268,46.171c-8.491,14.329 -21.759,26.005 -39.803,34.496c22.82,6.899 40.864,18.044 53.07,34.496c12.206,16.452 18.575,35.557 18.575,57.316c0,18.044 -3.715,34.496 -11.145,49.886c-7.961,15.39 -16.983,27.066 -28.127,35.557c-11.145,7.961 -24.943,14.329 -41.395,18.575c-16.983,4.246 -37.149,6.368 -61.562,6.368l-144.882,0Zm50.417,-220.242l82.259,0c22.29,0 38.211,-1.592 47.763,-4.246c12.737,-4.246 22.29,-10.083 29.189,-19.105c6.368,-9.022 9.553,-19.636 9.553,-32.904c0,-12.737 -3.184,-23.882 -9.022,-33.434c-6.368,-9.553 -14.86,-16.452 -26.005,-19.636c-11.145,-3.715 -30.781,-5.307 -57.847,-5.307l-75.891,0l0,114.632Zm0,175.663l94.465,0c16.452,0 27.597,-1.061 34.496,-2.123c11.145,-2.123 21.228,-5.307 28.658,-10.083c7.961,-5.307 14.329,-12.206 19.105,-21.228c5.307,-9.553 7.961,-20.167 7.961,-32.373c0,-13.798 -3.715,-26.005 -11.145,-36.619c-7.43,-10.614 -17.513,-18.044 -30.25,-22.29c-12.737,-4.246 -31.312,-6.368 -55.724,-6.368l-87.566,0l0,131.084Z" style="fill-rule:nonzero;"/></g><g><path d="M2027.793,1830.004l-43.518,0l0,-379.985l46.702,0l0,135.86c19.636,-24.943 45.11,-37.149 75.36,-37.149c16.983,0 33.434,3.184 48.294,10.083c14.86,6.899 27.597,16.452 37.149,28.658c10.083,12.206 17.513,27.597 23.351,44.579c5.307,17.513 7.961,36.088 7.961,56.255c0,47.233 -11.676,83.321 -35.027,109.325c-23.351,25.474 -50.948,38.741 -83.851,38.741c-32.373,0 -57.847,-13.798 -76.421,-40.864l0,34.496Zm-0.531,-139.575c0,32.904 4.246,56.785 13.268,71.645c14.86,23.882 34.496,35.557 59.97,35.557c20.167,0 37.68,-8.491 52.54,-26.535c14.86,-17.513 22.29,-44.048 22.29,-79.075c0,-35.557 -6.899,-62.092 -21.228,-79.606c-14.329,-16.983 -31.312,-25.474 -51.478,-25.474c-20.697,0 -38.211,9.022 -53.07,26.535c-14.86,17.513 -22.29,43.518 -22.29,76.952Z" style="fill-rule:nonzero;"/></g></g><g id="maj_F"><g><path d="M3215.885,989.264l0,-379.985l256.33,0l0,45.11l-205.913,0l0,117.286l178.317,0l0,45.11l-178.317,0l0,172.479l-50.417,0Z" style="fill-rule:nonzero;"/></g></g><g id="maj_G"><g><path d="M6411.48,1700.422l0,-44.579l160.804,0l0,140.637c-24.412,20.167 -49.886,34.496 -76.421,44.579c-26.005,10.083 -53.07,14.86 -80.667,14.86c-37.149,0 -71.114,-7.961 -101.895,-23.882c-30.25,-15.921 -53.601,-39.272 -68.992,-69.522c-15.39,-30.25 -23.351,-63.685 -23.351,-100.834c0,-37.149 7.961,-71.645 23.351,-104.018c15.39,-31.842 37.68,-55.724 66.869,-71.114c28.658,-15.39 62.092,-23.351 100.303,-23.351c27.066,0 52.009,4.246 74.299,13.268c22.29,9.022 39.803,21.228 52.009,37.149c12.737,15.921 22.29,36.619 29.189,62.092l-45.641,12.737c-5.838,-19.636 -12.737,-34.496 -21.228,-45.641c-8.491,-11.145 -20.697,-20.167 -36.088,-26.535c-15.921,-6.899 -33.434,-10.083 -52.54,-10.083c-22.82,0 -42.987,3.715 -59.439,10.614c-16.983,6.899 -30.25,15.921 -40.864,27.597c-10.083,11.145 -18.044,23.882 -23.882,37.68c-9.553,23.351 -14.329,48.825 -14.329,76.421c0,33.434 5.838,62.092 17.513,84.913c11.676,22.82 28.658,39.803 50.948,50.948c22.29,10.614 45.641,16.452 71.114,16.452c21.759,0 42.987,-4.246 63.685,-12.737c20.697,-8.491 36.088,-17.513 47.233,-26.535l0,-71.114l-111.979,0Z" style="fill-rule:nonzero;"/></g></g><g id="maj_D"><g><path d="M7058.766,3303.907l0,-379.985l131.084,0c29.189,0 52.009,2.123 67.4,5.307c21.759,5.307 40.334,14.329 55.724,27.597c20.167,16.983 35.027,38.211 45.11,64.746c10.083,26.535 14.86,56.255 14.86,90.22c0,29.189 -3.184,54.663 -10.083,76.952c-6.899,22.29 -15.39,40.334 -26.005,55.193c-10.614,14.329 -22.29,26.005 -34.496,34.496c-12.737,8.491 -27.597,14.86 -45.641,19.105c-17.513,4.246 -37.68,6.368 -61.031,6.368l-136.922,0Zm50.417,-44.579l81.198,0c24.943,0 44.579,-2.654 58.908,-7.43c14.329,-4.246 25.474,-11.145 33.965,-19.636c11.676,-11.676 21.228,-27.597 27.597,-47.763c6.899,-20.167 10.083,-44.579 10.083,-73.237c0,-39.803 -6.368,-70.584 -19.636,-91.812c-12.737,-21.228 -28.658,-35.557 -47.233,-42.987c-13.798,-4.776 -35.027,-7.43 -65.277,-7.43l-79.606,0l0,290.296Z" style="fill-rule:nonzero;"/></g></g><g id="maj_A"><g><path d="M7007.9,4849.917l145.413,-379.985l54.132,0l155.496,379.985l-56.785,0l-44.579,-115.163l-158.681,0l-41.926,115.163l-53.07,0Zm109.325,-156.027l128.961,0l-39.803,-105.08c-12.206,-31.842 -21.228,-58.378 -27.066,-79.075c-4.776,24.412 -11.676,48.825 -20.167,72.707l-41.926,111.448Z" style="fill-rule:nonzero;"/></g></g></g></svg>